<svg width="1920" height="1080" viewBox="0 0 1920 1080" fill="none" xmlns="http://www.w3.org/2000/svg">
<mask id="mask0_3_10" style="mask-type:alpha" maskUnits="userSpaceOnUse" x="0" y="0" width="1920" height="1080">
<rect width="1920" height="1080" fill="#0D092C"/>
</mask>
<g mask="url(#mask0_3_10)">
<rect width="1920" height="1080" fill="#0D092C"/>
<g filter="url(#filter0_f_3_10)">
<path d="M1123 339C1243 -26 1914 -23 1914 -23C1971 -20.6667 2087 -15.4 2095 -13C2103 -10.6 2042.33 654.667 2011 987C2011 987 1003 704 1123 339Z" fill="#052955"/>
</g>
<g filter="url(#filter1_f_3_10)">
<path d="M953 502C1182 484 1439 535 1502 677C1565 819 1264.49 1003.52 1036 1073C773.195 1152.91 426.901 1208.88 344 947C255.102 666.179 724 520 953 502Z" fill="#681E39"/>
</g>
<g filter="url(#filter2_f_3_10)">
<path d="M875 692C889 385 -35 57 -35 57L-172 1211L558 1206C558 1206 861 999 875 692Z" fill="#033E67"/>
</g>
</g>
<g clip-path="url(#clip0_3_10)">
<path d="M380.003 484.251H299.267C295.745 484.251 292.891 487.107 292.891 490.629V571.392C292.891 574.914 295.745 577.77 299.267 577.77H380.003C383.525 577.77 386.379 574.914 386.379 571.392V490.629C386.379 487.107 383.525 484.251 380.003 484.251Z" fill="url(#paint0_linear_3_10)"/>
<path d="M511.915 484.251H431.179C427.657 484.251 424.803 487.107 424.803 490.629V571.392C424.803 574.914 427.657 577.77 431.179 577.77H511.915C515.436 577.77 518.291 574.914 518.291 571.392V490.629C518.291 487.107 515.436 484.251 511.915 484.251Z" fill="url(#paint1_linear_3_10)"/>
<path d="M642.835 484.251H562.099C558.577 484.251 555.723 487.107 555.723 490.629V571.392C555.723 574.914 558.577 577.77 562.099 577.77H642.835C646.357 577.77 649.211 574.914 649.211 571.392V490.629C649.211 487.107 646.357 484.251 642.835 484.251Z" fill="url(#paint2_linear_3_10)"/>
<path d="M380.003 352.968H299.282C297.59 352.968 295.966 353.64 294.768 354.835C293.57 356.031 292.895 357.653 292.891 359.346V440.109C292.899 441.799 293.576 443.417 294.773 444.61C295.971 445.802 297.592 446.472 299.282 446.471H380.003C381.696 446.471 383.319 445.8 384.517 444.604C385.715 443.409 386.39 441.786 386.394 440.093V359.346C386.39 357.653 385.715 356.031 384.517 354.835C383.319 353.64 381.696 352.968 380.003 352.968ZM359.93 420.013H319.371V379.441H359.93V420.013Z" fill="url(#paint3_linear_3_10)"/>
<path d="M511.915 352.968H431.194C429.501 352.968 427.878 353.64 426.68 354.835C425.482 356.031 424.807 357.653 424.803 359.346V440.109C424.807 441.802 425.482 443.424 426.68 444.62C427.878 445.815 429.501 446.487 431.194 446.487H511.915C513.607 446.487 515.231 445.815 516.429 444.62C517.627 443.424 518.302 441.802 518.306 440.109V359.346C518.302 357.653 517.627 356.031 516.429 354.835C515.231 353.64 513.607 352.968 511.915 352.968ZM491.841 420.013H451.283V379.441H491.841V420.013Z" fill="url(#paint4_linear_3_10)"/>
<path d="M642.835 352.968H562.099C561.258 352.962 560.424 353.123 559.645 353.44C558.866 353.758 558.158 354.227 557.561 354.82C556.964 355.413 556.49 356.118 556.167 356.895C555.843 357.672 555.677 358.505 555.677 359.346V440.109C555.677 440.946 555.842 441.776 556.162 442.549C556.483 443.323 556.952 444.026 557.545 444.619C558.137 445.211 558.839 445.681 559.613 446.001C560.387 446.322 561.216 446.487 562.053 446.487H642.789C644.48 446.487 646.102 445.815 647.298 444.619C648.494 443.423 649.165 441.8 649.165 440.109V359.346C649.165 357.662 648.5 356.047 647.314 354.852C646.128 353.657 644.518 352.98 642.835 352.968ZM623.601 420.013H583.042V379.441H623.601V420.013Z" fill="url(#paint5_linear_3_10)"/>
<path d="M380.003 615.534H299.282C297.586 615.538 295.96 616.215 294.762 617.417C293.564 618.618 292.891 620.246 292.891 621.943V702.69C292.895 704.385 293.569 706.009 294.767 707.207C295.965 708.405 297.588 709.08 299.282 709.084H380.003C381.697 709.08 383.32 708.405 384.518 707.207C385.716 706.009 386.39 704.385 386.394 702.69V621.943C386.394 620.246 385.722 618.618 384.523 617.417C383.325 616.215 381.7 615.538 380.003 615.534ZM359.93 682.58H319.371V642.023H359.93V682.58Z" fill="url(#paint6_linear_3_10)"/>
<path d="M511.915 615.534H431.194C429.497 615.538 427.872 616.215 426.674 617.417C425.475 618.618 424.803 620.246 424.803 621.943V702.69C424.807 704.385 425.481 706.009 426.679 707.207C427.877 708.405 429.5 709.08 431.194 709.084H511.915C513.609 709.08 515.232 708.405 516.43 707.207C517.627 706.009 518.302 704.385 518.306 702.69V621.943C518.306 620.246 517.633 618.618 516.435 617.417C515.237 616.215 513.611 615.538 511.915 615.534ZM491.841 682.58H451.283V642.023H491.841V682.58Z" fill="url(#paint7_linear_3_10)"/>
<path d="M642.835 615.534H562.099C561.256 615.53 560.42 615.693 559.64 616.014C558.86 616.334 558.151 616.806 557.554 617.402C556.957 617.997 556.484 618.705 556.162 619.485C555.84 620.264 555.675 621.1 555.677 621.943V702.69C555.677 704.383 556.348 706.007 557.544 707.206C558.739 708.404 560.361 709.08 562.053 709.084H642.789C644.482 709.08 646.104 708.404 647.299 707.206C648.494 706.007 649.165 704.383 649.165 702.69V621.943C649.17 620.255 648.506 618.634 647.32 617.434C646.135 616.233 644.522 615.551 642.835 615.534ZM623.601 682.58H583.042V642.023H623.601V682.58Z" fill="url(#paint8_linear_3_10)"/>
<path d="M243.226 300.25H424.299V271H244.751C240.712 270.998 236.712 271.792 232.981 273.337C229.249 274.883 225.858 277.148 223.002 280.005C220.146 282.862 217.881 286.254 216.337 289.987C214.792 293.72 213.998 297.721 214 301.761V757.254C214 761.293 214.796 765.292 216.341 769.024C217.887 772.755 220.152 776.145 223.008 779C225.863 781.855 229.253 784.12 232.984 785.664C236.715 787.208 240.713 788.002 244.751 788H649.257V758.887H243.226V300.25Z" fill="url(#paint9_linear_3_10)"/>
<path d="M700.097 271H517.62V300.25H701.698L701.485 787.939C709.384 787.586 716.843 784.199 722.309 778.483C727.776 772.768 730.828 765.164 730.832 757.254V301.761C730.834 297.722 730.041 293.722 728.497 289.99C726.953 286.258 724.69 282.867 721.835 280.011C718.981 277.154 715.592 274.888 711.862 273.342C708.132 271.796 704.134 271 700.097 271Z" fill="url(#paint10_linear_3_10)"/>
<path d="M904.096 688.47C885.136 688.47 876.64 680.138 876.64 661.004V607.936C876.64 588.817 885.121 580.471 904.096 580.471H949.216C968.176 580.471 976.672 588.802 976.672 607.936V618.281H964.027V609.736C964.027 596.309 959.253 591.533 945.83 591.533H907.803C894.7 591.533 889.605 596.614 889.605 609.736V659.097C889.605 672.219 894.7 677.3 907.803 677.3H945.738C959.161 677.3 963.935 672.525 963.935 659.097V649.225H976.58V660.943C976.58 680.077 968.1 688.409 949.124 688.409L904.096 688.47Z" fill="white"/>
<path d="M1090.71 580.486H1103.66V688.47H1090.71V637.415H1017.86V688.47H1004.91V580.486H1017.86V625.986H1090.66L1090.71 580.486Z" fill="white"/>
<path d="M1228.72 688.47L1215.62 660.547H1150.99L1137.89 688.47H1124.16L1176.75 580.486H1190.63L1243.21 688.47H1228.72ZM1155.93 650.217H1210.67L1183.37 591.899L1155.93 650.217Z" fill="white"/>
<path d="M1263.25 688.47V580.486H1334.5C1351.77 580.486 1358.91 587.428 1358.91 604.899V624.033C1358.91 641.458 1351.8 648.447 1334.5 648.447H1276.2V688.47H1263.25ZM1276.2 638.025H1330.55C1342.43 638.025 1345.97 634.485 1345.97 622.599V606.562C1345.97 594.676 1342.43 591.121 1330.55 591.121H1276.2V638.025Z" fill="white"/>
<path d="M1471.6 580.486V592.052H1429.35V688.47H1416.38V592.052H1374.13V580.486H1471.6Z" fill="white"/>
<path d="M1506.59 677.514H1580.94V688.47H1493.64V580.486H1579.4V591.426H1506.59V626.749H1573.22V637.079H1506.59V677.514Z" fill="white"/>
<path d="M1706 688.47H1691.04L1659.11 645.12H1618.7V688.47H1605.75V580.486H1677C1694.27 580.486 1701.41 587.428 1701.41 604.899V620.158C1701.41 637.598 1694.3 644.571 1677 644.571L1673.46 644.724L1706 688.47ZM1618.7 590.816V634.943H1672.99C1684.87 634.943 1688.41 631.388 1688.41 619.517V606.242C1688.41 594.371 1684.87 590.816 1672.99 590.816H1618.7Z" fill="white"/>
<path d="M988.28 393.861V417.313H941.696V501.844H914.56V417.313H867.976V393.861H988.28Z" fill="white"/>
<path d="M1039 479.933H1123.21V501.844H1011.75V393.861H1121.72V415.756H1039.04V436.279H1115.48V456.328H1039V479.933Z" fill="white"/>
<path d="M1177.33 501.844C1156.97 501.844 1147.42 492.43 1147.42 471.922V423.782C1147.42 403.26 1156.97 393.861 1177.33 393.861H1242.08C1262.45 393.861 1272.01 403.26 1272.01 423.782V436.431H1245.8V428.802C1245.8 419.388 1242.57 416.153 1233.16 416.153H1187.17C1177.91 416.153 1174.52 419.388 1174.52 428.802V467.055C1174.52 476.469 1177.91 479.704 1187.17 479.704H1233.13C1242.54 479.704 1245.77 476.469 1245.77 467.055V458.266H1271.99V471.999C1271.99 492.506 1262.43 501.92 1242.07 501.92L1177.33 501.844Z" fill="white"/>
<path d="M1397.09 393.861H1424.22V501.844H1397.09V457.412H1327.38V501.844H1300.23V393.861H1327.38V433.96H1397.09V393.861Z" fill="white"/>
</g>
<defs>
<filter id="filter0_f_3_10" x="913.077" y="-223.001" width="1382.64" height="1410" filterUnits="userSpaceOnUse" color-interpolation-filters="sRGB">
<feFlood flood-opacity="0" result="BackgroundImageFix"/>
<feBlend mode="normal" in="SourceGraphic" in2="BackgroundImageFix" result="shape"/>
<feGaussianBlur stdDeviation="100" result="effect1_foregroundBlur_3_10"/>
</filter>
<filter id="filter1_f_3_10" x="132.931" y="298.526" width="1577.57" height="1041.03" filterUnits="userSpaceOnUse" color-interpolation-filters="sRGB">
<feFlood flood-opacity="0" result="BackgroundImageFix"/>
<feBlend mode="normal" in="SourceGraphic" in2="BackgroundImageFix" result="shape"/>
<feGaussianBlur stdDeviation="100" result="effect1_foregroundBlur_3_10"/>
</filter>
<filter id="filter2_f_3_10" x="-572" y="-343" width="1847.16" height="1954" filterUnits="userSpaceOnUse" color-interpolation-filters="sRGB">
<feFlood flood-opacity="0" result="BackgroundImageFix"/>
<feBlend mode="normal" in="SourceGraphic" in2="BackgroundImageFix" result="shape"/>
<feGaussianBlur stdDeviation="200" result="effect1_foregroundBlur_3_10"/>
</filter>
<linearGradient id="paint0_linear_3_10" x1="262.643" y1="768.057" x2="424.028" y2="271.534" gradientUnits="userSpaceOnUse">
<stop stop-color="#F04D58"/>
<stop offset="1" stop-color="#EC9022"/>
</linearGradient>
<linearGradient id="paint1_linear_3_10" x1="380.4" y1="811.635" x2="541.784" y2="315.112" gradientUnits="userSpaceOnUse">
<stop stop-color="#F04D58"/>
<stop offset="1" stop-color="#EC9022"/>
</linearGradient>
<linearGradient id="paint2_linear_3_10" x1="497.272" y1="854.878" x2="658.656" y2="358.355" gradientUnits="userSpaceOnUse">
<stop stop-color="#F04D58"/>
<stop offset="1" stop-color="#EC9022"/>
</linearGradient>
<linearGradient id="paint3_linear_3_10" x1="225.501" y1="751.151" x2="386.886" y2="254.628" gradientUnits="userSpaceOnUse">
<stop stop-color="#F04D58"/>
<stop offset="1" stop-color="#EC9022"/>
</linearGradient>
<linearGradient id="paint4_linear_3_10" x1="343.258" y1="794.729" x2="504.642" y2="298.206" gradientUnits="userSpaceOnUse">
<stop stop-color="#F04D58"/>
<stop offset="1" stop-color="#EC9022"/>
</linearGradient>
<linearGradient id="paint5_linear_3_10" x1="460.114" y1="837.971" x2="621.499" y2="341.448" gradientUnits="userSpaceOnUse">
<stop stop-color="#F04D58"/>
<stop offset="1" stop-color="#EC9022"/>
</linearGradient>
<linearGradient id="paint6_linear_3_10" x1="299.801" y1="784.964" x2="461.185" y2="288.441" gradientUnits="userSpaceOnUse">
<stop stop-color="#F04D58"/>
<stop offset="1" stop-color="#EC9022"/>
</linearGradient>
<linearGradient id="paint7_linear_3_10" x1="417.557" y1="828.542" x2="578.942" y2="332.019" gradientUnits="userSpaceOnUse">
<stop stop-color="#F04D58"/>
<stop offset="1" stop-color="#EC9022"/>
</linearGradient>
<linearGradient id="paint8_linear_3_10" x1="534.429" y1="871.784" x2="695.798" y2="375.261" gradientUnits="userSpaceOnUse">
<stop stop-color="#F04D58"/>
<stop offset="1" stop-color="#EC9022"/>
</linearGradient>
<linearGradient id="paint9_linear_3_10" x1="347.818" y1="800.466" x2="512.439" y2="293.995" gradientUnits="userSpaceOnUse">
<stop stop-color="#F04D58"/>
<stop offset="1" stop-color="#EC9022"/>
</linearGradient>
<linearGradient id="paint10_linear_3_10" x1="507.156" y1="876.987" x2="674.554" y2="361.972" gradientUnits="userSpaceOnUse">
<stop stop-color="#F04D58"/>
<stop offset="1" stop-color="#EC9022"/>
</linearGradient>
<clipPath id="clip0_3_10">
<rect width="1492" height="517" fill="white" transform="translate(214 271)"/>
</clipPath>
</defs>
</svg>
